<?xml version="1.0" encoding="UTF-8"?>
<svg id="Layer_2" data-name="Layer 2" xmlns="http://www.w3.org/2000/svg" viewBox="0 0 17.58 17.63">
  <defs>
    <style>
      .cls-1 {
        fill: #129137;
      }
    </style>
  </defs>
  <g id="Layer_1-2" data-name="Layer 1">
    <g>
      <path class="cls-1" d="M9.8,6.02c-.33,0-.64.01-.93.04,0,0,.01.06.03.15.02.09.03.17.03.23,0,.1-.05.24-.14.42s-.28.5-.57.97-.52.87-.72,1.22-.43.8-.71,1.35c-.09.17-.14.29-.18.35s-.09.16-.16.3c-.07.14-.12.26-.16.36-.03.1-.05.18-.05.23,0,.11.06.19.18.24.12.05.28.07.5.07.55,0,1.14-.11,1.76-.33.62-.22,1.2-.52,1.74-.9.54-.39.98-.82,1.3-1.31s.49-.99.49-1.52c0-.6-.21-1.07-.62-1.4-.41-.33-1.01-.49-1.8-.49Z"/>
      <path class="cls-1" d="M16.68,8.28h.9c-.01-.17-.03-.34-.05-.51h-1.74v-1.07h1.56c-.05-.18-.11-.35-.17-.53h-2.17v-1.07h1.77C15.37,2.09,12.35,0,8.82,0,3.95,0,0,3.95,0,8.82s3.95,8.82,8.82,8.82c3.53,0,6.56-2.09,7.96-5.09h-1.77v-1.07h2.17c.06-.18.12-.36.17-.54h-1.56v-1.07h1.74c.02-.16.04-.33.05-.49h-.9v-1.07ZM12.28,9.68c-.4.7-.93,1.31-1.59,1.84-.66.53-1.41.95-2.24,1.26-.83.31-1.65.47-2.45.47-.15,0-.27-.02-.36-.05-.09-.04-.15-.1-.19-.21-.04-.1-.06-.25-.06-.46,0-.25.02-.45.06-.61.04-.16.1-.34.18-.55.59-1.4,1.61-3.16,3.06-5.28-.29.04-.62.1-.96.2-.35.1-.68.21-.99.33-.31.12-.58.23-.79.34s-.32.19-.32.24c0,.03.03.05.08.05.04,0,.2-.03.5-.08.29-.05.56-.08.8-.09-.27.08-.5.16-.69.24-.19.08-.39.17-.6.27-.21.1-.35.16-.44.2s-.17.05-.23.05c-.21,0-.31-.14-.31-.43,0-.74.17-1.27.53-1.57.14-.12.37-.27.69-.44.32-.17.67-.33,1.07-.48.4-.15.83-.28,1.31-.39.47-.11.95-.16,1.41-.16s.91.07,1.31.22c.4.15.73.36,1,.63.27.27.47.6.62.99.15.39.22.83.22,1.32,0,.74-.2,1.46-.59,2.16Z"/>
    </g>
  </g>
</svg>