<?xml version="1.0" encoding="UTF-8"?>
<svg id="Layer_2" data-name="Layer 2" xmlns="http://www.w3.org/2000/svg" viewBox="0 0 18.76 23.3">
  <defs>
    <style>
      .cls-1 {
        font-family: Sarabun-SemiBold, Sarabun;
        font-size: 14px;
        font-weight: 600;
      }

      .cls-1, .cls-2 {
        fill: #1dcc4f;
      }
    </style>
  </defs>
  <g id="Layer_1-2" data-name="Layer 1">
    <g>
      <path class="cls-2" d="M9.54,1.5c.26,0,.48.07.72.24l.06.04.07.04c.92.5,1.89,1.09,2.83,1.67.49.3.97.6,1.49.9,2.14,1.19,2.62,1.82,2.54,3.32-.11,2.21-.35,6.54-.43,7.99-.73.75-2.27,1.64-3.54,2.36-.78.45-1.51.87-2.13,1.28-.92.54-1.42.76-1.78.76-.12,0-.33-.02-.67-.19-1.8-.94-3.85-2.24-5.67-3.39l-.31-.19-.04-.02-.04-.02c-.94-.52-1.17-1.26-1.13-3.55.04-.78.02-1.63,0-2.45-.04-1.54-.09-3.14.31-4.2.51-.71,1.61-1.34,2.67-1.95.52-.3,1.06-.61,1.55-.94.26-.15.51-.31.77-.47.97-.6,1.96-1.23,2.72-1.23M9.54,0c-1.46,0-2.91,1.12-4.29,1.93-1.55,1.06-3.79,1.95-4.75,3.46C-.34,7.39.17,10.41.03,12.69c-.05,2.18.07,3.9,1.9,4.92,1.91,1.2,4.13,2.62,6.08,3.65.5.24.93.36,1.37.36.76,0,1.52-.35,2.58-.99,1.84-1.25,5.24-2.77,6.34-4.34,0,0,.32-5.81.45-8.49.12-2.43-1.08-3.47-3.31-4.71-1.41-.84-2.9-1.81-4.34-2.59C10.58.14,10.06,0,9.54,0h0Z"/>
      <text class="cls-1" transform="translate(5.18 15.59)"><tspan x="0" y="0">D</tspan></text>
    </g>
  </g>
</svg>